{
  "accessors": [
    {
      "bufferView": 2,
      "componentType": 5126,
      "count": 1350,
      "max": [
        0.80285698175430298,
        1,
        0.70123398303985596
      ],
      "min": [
        -0.80285698175430298,
        -1,
        -0.70123398303985596
      ],
      "type": "VEC3"
    },
    {
      "bufferView": 2,
      "byteOffset": 16200,
      "componentType": 5126,
      "count": 1350,
      "max": [
        1,
        1,
        1
      ],
      "min": [
        -1,
        -1,
        -1
      ],
      "type": "VEC3"
    },
    {
      "bufferView": 3,
      "componentType": 5126,
      "count": 1350,
      "max": [
        1,
        1,
        1,
        1
      ],
      "min": [
        -1,
        -0.99990743398666382,
        -1,
        -1
      ],
      "type": "VEC4"
    },
    {
      "bufferView": 1,
      "componentType": 5126,
      "count": 1350,
      "max": [
        0.99758601188659668,
        0.99900001287460327
      ],
      "min": [
        0.0010000000474974513,
        0.0010000000474974513
      ],
      "type": "VEC2"
    },
    {
      "bufferView": 1,
      "byteOffset": 10800,
      "componentType": 5126,
      "count": 1350,
      "max": [
        0.99758601188659668,
        0.99900001287460327
      ],
      "min": [
        0.0010000000474974513,
        0.0010000000474974513
      ],
      "type": "VEC2"
    },
    {
      "bufferView": 0,
      "componentType": 5125,
      "count": 3756,
      "max": [
        1349
      ],
      "min": [
        0
      ],
      "type": "SCALAR"
    }
  ],
  "asset": {
    "extras": {
      "author": "Milan (https://sketchfab.com/milanfonken)",
      "license": "CC-BY-NC-ND-4.0 (http://creativecommons.org/licenses/by-nc-nd/4.0/)",
      "source": "https://sketchfab.com/3d-models/movinghead-9e6793c780a24b74a8bec17d6e0d2e4f",
      "title": "Movinghead"
    },
    "generator": "Sketchfab-5.68.0",
    "version": "2.0"
  },
  "bufferViews": [
    {
      "buffer": 0,
      "byteLength": 15024,
      "byteOffset": 0,
      "name": "floatBufferViews",
      "target": 34963
    },
    {
      "buffer": 0,
      "byteLength": 21600,
      "byteOffset": 15024,
      "byteStride": 8,
      "name": "floatBufferViews",
      "target": 34962
    },
    {
      "buffer": 0,
      "byteLength": 32400,
      "byteOffset": 36624,
      "byteStride": 12,
      "name": "floatBufferViews",
      "target": 34962
    },
    {
      "buffer": 0,
      "byteLength": 21600,
      "byteOffset": 69024,
      "byteStride": 16,
      "name": "floatBufferViews",
      "target": 34962
    }
  ],
  "buffers": [
    {
      "byteLength": 90624,
      "uri": "https://cdn.glitch.me/dff00168-4294-4529-a60a-2de7ac9dba96/movinghead.bin?v=1640547397529"
    }
  ],
  "images": [
    {
      "uri": "https://cdn.glitch.me/dff00168-4294-4529-a60a-2de7ac9dba96/movingheadmaterial_baseColor.jpeg?v=1640547423904"
    },
    {
      "uri": "https://cdn.glitch.me/dff00168-4294-4529-a60a-2de7ac9dba96/movingheadmaterial_metallicRoughness.png?v=1640547467687"
    },
    {
      "uri": "https://cdn.glitch.me/dff00168-4294-4529-a60a-2de7ac9dba96/movingheadmaterial_emissive.jpeg?v=1640547432562"
    },
    {
      "uri": "https://cdn.glitch.me/dff00168-4294-4529-a60a-2de7ac9dba96/movingheadmaterial_normal.png?v=1640547490782"
    }
  ],
  "materials": [
    {
      "doubleSided": true,
      "emissiveFactor": [
        1,
        1,
        1
      ],
      "emissiveTexture": {
        "index": 2,
        "texCoord": 0
      },
      "name": "Standardmaterial",
      "normalTexture": {
        "index": 3,
        "scale": 1,
        "texCoord": 0
      },
      "occlusionTexture": {
        "index": 1,
        "strength": 1,
        "texCoord": 0
      },
      "pbrMetallicRoughness": {
        "baseColorFactor": [
          1,
          1,
          1,
          1
        ],
        "baseColorTexture": {
          "index": 0,
          "texCoord": 0
        },
        "metallicFactor": 1,
        "metallicRoughnessTexture": {
          "index": 1,
          "texCoord": 0
        },
        "roughnessFactor": 1
      }
    }
  ],
  "meshes": [
    {
      "name": "defaultMaterial",
      "primitives": [
        {
          "attributes": {
            "NORMAL": 1,
            "POSITION": 0,
            "TANGENT": 2,
            "TEXCOORD_0": 3,
            "TEXCOORD_1": 4
          },
          "indices": 5,
          "material": 0,
          "mode": 4
        }
      ]
    }
  ],
  "nodes": [
    {
      "children": [
        1
      ],
      "name": "RootNode (gltf orientation matrix)",
      "rotation": [
        -0.70710678118654746,
        -0,
        -0,
        0.70710678118654757
      ]
    },
    {
      "children": [
        2
      ],
      "name": "RootNode (model correction matrix)"
    },
    {
      "children": [
        3
      ],
      "matrix": [
        1,
        0,
        0,
        0,
        0,
        -4.3711390063094768e-08,
        0.999999999999999,
        0,
        0,
        -0.999999999999999,
        -4.3711390063094768e-08,
        0,
        0,
        0,
        0,
        1
      ],
      "name": "Collada visual scene group"
    },
    {
      "children": [
        4
      ],
      "name": "Box001"
    },
    {
      "mesh": 0,
      "name": "defaultMaterial"
    }
  ],
  "samplers": [
    {
      "magFilter": 9729,
      "minFilter": 9987,
      "wrapS": 10497,
      "wrapT": 10497
    }
  ],
  "scene": 0,
  "scenes": [
    {
      "name": "OSG_Scene",
      "nodes": [
        0
      ]
    }
  ],
  "textures": [
    {
      "sampler": 0,
      "source": 0
    },
    {
      "sampler": 0,
      "source": 1
    },
    {
      "sampler": 0,
      "source": 2
    },
    {
      "sampler": 0,
      "source": 3
    }
  ]
}

