{
  "accessors": [
    {
      "bufferView": 2,
      "componentType": 5126,
      "count": 7416,
      "max": [
        62.500999450683594,
        14.501017570495605,
        14.50100040435791
      ],
      "min": [
        -62.499000549316406,
        -14.498981475830078,
        -14.49899959564209
      ],
      "type": "VEC3"
    },
    {
      "bufferView": 2,
      "byteOffset": 88992,
      "componentType": 5126,
      "count": 7416,
      "max": [
        1,
        1,
        1
      ],
      "min": [
        -1,
        -1,
        -1
      ],
      "type": "VEC3"
    },
    {
      "bufferView": 1,
      "componentType": 5126,
      "count": 7416,
      "max": [
        1.0000001192092896,
        1.0000001192092896
      ],
      "min": [
        -1.1920928955078125e-07,
        0
      ],
      "type": "VEC2"
    },
    {
      "bufferView": 0,
      "componentType": 5125,
      "count": 41232,
      "max": [
        7415
      ],
      "min": [
        0
      ],
      "type": "SCALAR"
    }
  ],
  "asset": {
    "extras": {
      "author": "akerStudio (https://sketchfab.com/akerStudio)",
      "license": "CC-BY-4.0 (http://creativecommons.org/licenses/by/4.0/)",
      "source": "https://sketchfab.com/3d-models/square-truss-straight-segment-21-f43719b6267645a587a9d3959b5f2d2b",
      "title": "Square Truss Straight Segment 21"
    },
    "generator": "Sketchfab-9.52.0",
    "version": "2.0"
  },
  "bufferViews": [
    {
      "buffer": 0,
      "byteLength": 164928,
      "byteOffset": 0,
      "name": "floatBufferViews",
      "target": 34963
    },
    {
      "buffer": 0,
      "byteLength": 59328,
      "byteOffset": 164928,
      "byteStride": 8,
      "name": "floatBufferViews",
      "target": 34962
    },
    {
      "buffer": 0,
      "byteLength": 177984,
      "byteOffset": 224256,
      "byteStride": 12,
      "name": "floatBufferViews",
      "target": 34962
    }
  ],
  "buffers": [
    {
      "byteLength": 402240,
      "uri": "https://cdn.glitch.me/dff00168-4294-4529-a60a-2de7ac9dba96/trusse.bin?v=1640536977090"
    }
  ],
  "materials": [
    {
      "doubleSided": true,
      "emissiveFactor": [
        0,
        0,
        0
      ],
      "name": "VRAY_ALUMNUM_02",
      "pbrMetallicRoughness": {
        "baseColorFactor": [
          0.67123573745678855,
          0.67123573745678855,
          0.67123573745678855,
          1
        ],
        "metallicFactor": 0,
        "roughnessFactor": 0.59999999999999998
      }
    }
  ],
  "meshes": [
    {
      "primitives": [
        {
          "attributes": {
            "NORMAL": 1,
            "POSITION": 0,
            "TEXCOORD_0": 2
          },
          "indices": 3,
          "material": 0,
          "mode": 4
        }
      ]
    }
  ],
  "nodes": [
    {
      "children": [
        1
      ],
      "name": "RootNode (gltf orientation matrix)",
      "rotation": [
        -0.70710678118654746,
        -0,
        -0,
        0.70710678118654757
      ]
    },
    {
      "children": [
        2
      ],
      "matrix": [
        1,
        0,
        0,
        0,
        0,
        1,
        0,
        0,
        0,
        0,
        1,
        0,
        0,
        0,
        7.602807272633072e-13,
        1
      ],
      "name": "RootNode (model correction matrix)"
    },
    {
      "children": [
        3
      ],
      "matrix": [
        0.099999994039535522,
        -3.0199160505617328e-08,
        0,
        0,
        0,
        0,
        0.099999994039535522,
        0,
        -3.0199160505617328e-08,
        -0.099999994039535522,
        0,
        0,
        0,
        0,
        0,
        1
      ],
      "name": "Square Tru"
    },
    {
      "children": [
        4
      ],
      "matrix": [
        10.00000059604557,
        -1.3200472310764963e-13,
        -3.0199160552921205e-06,
        0,
        -3.0199160552921264e-06,
        -4.3711390833002285e-07,
        -10.000000596045551,
        0,
        9.3868074482492688e-21,
        10.000000596046462,
        -4.3711390833006271e-07,
        0,
        -0.0099999980511039123,
        -0.010000000633906941,
        0.01000000452805022,
        1
      ],
      "name": "3DSMeshMatrix"
    },
    {
      "mesh": 0,
      "name": ""
    }
  ],
  "scene": 0,
  "scenes": [
    {
      "name": "OSG_Scene",
      "nodes": [
        0
      ]
    }
  ]
}

